<svg viewBox="0 0 375 800" xmlns="http://www.w3.org/2000/svg">
  <!-- λ¨λ°”μΌ λ””λ°”μ΄μ¤ ν”„λ μ„ -->
  <rect width="375" height="800" fill="#f8f9fa" stroke="#e9ecef" stroke-width="2"/>
  
  <!-- μƒλ‹¨ μƒνƒλ°” -->
  <rect x="0" y="0" width="375" height="50" fill="#000" opacity="0.1"/>
  <text x="20" y="30" font-family="Arial" font-size="12" fill="#000">9:41</text>
  <text x="355" y="30" text-anchor="end" font-family="Arial" font-size="12" fill="#000">100%</text>
  
  <!-- ν—¤λ” -->
  <rect x="10" y="60" width="355" height="70" fill="#fff" stroke="#dee2e6" stroke-width="1"/>
  <text x="187.5" y="85" text-anchor="middle" font-family="Arial" font-size="20" font-weight="bold">μ„μΈλ › π΅</text>
  <text x="187.5" y="105" text-anchor="middle" font-family="Arial" font-size="12" fill="#6c757d">μ„μΈ λ¨μ„ μ¥μ† κ²°μ • λ£°λ ›</text>
  
  <!-- λ©”μΈ μ»¨ν…μ΄λ„ -->
  <rect x="10" y="140" width="355" height="630" fill="#fff" stroke="#dee2e6" stroke-width="1"/>
  
  <!-- μ¥μ† μ…λ ¥ μμ—­ (μƒλ‹¨) -->
  <rect x="20" y="150" width="335" height="200" fill="#f8f9fa" stroke="#dee2e6" stroke-width="1"/>
  <text x="187.5" y="170" text-anchor="middle" font-family="Arial" font-size="16" font-weight="bold">μ¥μ† μ…λ ¥</text>
  
  <!-- μ¥μ† μ…λ ¥ νΌ -->
  <rect x="30" y="180" width="250" height="35" fill="#fff" stroke="#ced4da" stroke-width="1"/>
  <text x="35" y="200" font-family="Arial" font-size="12" fill="#6c757d">μ¥μ†λ…μ„ μ…λ ¥ν•μ„Έμ”</text>
  <rect x="290" y="182" width="55" height="31" fill="#007bff" stroke="#007bff" stroke-width="1"/>
  <text x="317.5" y="201" text-anchor="middle" font-family="Arial" font-size="11" fill="#fff">μ¶”κ°€</text>
  
  <!-- μ¥μ† λ©λ΅ (κ°„μ†ν™”) -->
  <text x="30" y="235" font-family="Arial" font-size="14" font-weight="bold">μ¥μ† λ©λ΅ (3κ°)</text>
  
  <!-- μ¥μ† μ•„μ΄ν…λ“¤ (κ°„μ†ν™”) -->
  <rect x="30" y="245" width="315" height="25" fill="#fff" stroke="#dee2e6" stroke-width="1"/>
  <text x="35" y="260" font-family="Arial" font-size="12">1. κ°•λ‚¨μ—­ λ§›μ§‘κ±°λ¦¬</text>
  <circle cx="335" cy="257" r="6" fill="#dc3545"/>
  <text x="335" y="260" text-anchor="middle" font-family="Arial" font-size="8" fill="#fff">Γ—</text>
  
  <rect x="30" y="275" width="315" height="25" fill="#fff" stroke="#dee2e6" stroke-width="1"/>
  <text x="35" y="290" font-family="Arial" font-size="12">2. ν™λ€ μ μ§‘</text>
  <circle cx="335" cy="287" r="6" fill="#dc3545"/>
  <text x="335" y="290" text-anchor="middle" font-family="Arial" font-size="8" fill="#fff">Γ—</text>
  
  <rect x="30" y="305" width="315" height="25" fill="#fff" stroke="#dee2e6" stroke-width="1"/>
  <text x="35" y="320" font-family="Arial" font-size="12">3. λ…λ™ μΉ΄νκ±°λ¦¬</text>
  <circle cx="335" cy="317" r="6" fill="#dc3545"/>
  <text x="335" y="320" text-anchor="middle" font-family="Arial" font-size="8" fill="#fff">Γ—</text>
  
  <!-- λ£°λ › μμ—­ (ν•λ‹¨) -->
  <rect x="20" y="360" width="335" height="380" fill="#f8f9fa" stroke="#dee2e6" stroke-width="1"/>
  <text x="187.5" y="380" text-anchor="middle" font-family="Arial" font-size="16" font-weight="bold">λ£°λ ›</text>
  
  <!-- λ£°λ › μ› (λ¨λ°”μΌμ— λ§κ² ν¬κΈ° μ¶•μ†) -->
  <circle cx="187.5" cy="520" r="100" fill="#fff" stroke="#dee2e6" stroke-width="2"/>
  
  <!-- λ£°λ › μ„Ήμ…λ“¤ (5κ° μ„Ήμ…, κ°κ° 72λ„μ”©, λ°μ§€λ¦„ 100px) -->
  <!-- μ„Ήμ… 1: 0λ„-72λ„ -->
  <path d="M 187.5 420 A 100 100 0 0 1 257 462.2 L 187.5 520 Z" fill="#ff6b6b" stroke="#fff" stroke-width="2"/>
  
  <!-- μ„Ήμ… 2: 72λ„-144λ„ -->
  <path d="M 257 462.2 A 100 100 0 0 1 257 577.8 L 187.5 520 Z" fill="#4ecdc4" stroke="#fff" stroke-width="2"/>
  
  <!-- μ„Ήμ… 3: 144λ„-216λ„ -->
  <path d="M 257 577.8 A 100 100 0 0 1 118 577.8 L 187.5 520 Z" fill="#45b7d1" stroke="#fff" stroke-width="2"/>
  
  <!-- μ„Ήμ… 4: 216λ„-288λ„ -->
  <path d="M 118 577.8 A 100 100 0 0 1 118 462.2 L 187.5 520 Z" fill="#f9ca24" stroke="#fff" stroke-width="2"/>
  
  <!-- μ„Ήμ… 5: 288λ„-360λ„ -->
  <path d="M 118 462.2 A 100 100 0 0 1 187.5 420 L 187.5 520 Z" fill="#f0932b" stroke="#fff" stroke-width="2"/>
  
  <!-- λ£°λ › μ¤‘μ•™ -->
  <circle cx="187.5" cy="520" r="12" fill="#2d3436" stroke="#fff" stroke-width="2"/>
  
  <!-- λ£°λ › ν¬μΈν„° (μ¤‘μ•™μ„ κ°€λ¦¬ν‚¤λ„λ΅ μμ •) -->
  <polygon points="187.5,405 195,420 180,420" fill="#2d3436"/>
  
  <!-- μ¤ν•€ λ²„νΌ -->
  <rect x="106.25" y="650" width="162.5" height="50" rx="25" fill="#28a745" stroke="#28a745" stroke-width="1"/>
  <text x="187.5" y="680" text-anchor="middle" font-family="Arial" font-size="16" font-weight="bold" fill="#fff">π² μ¤ν•€!</text>
  
  <!-- ν•λ‹¨ μ•λ‚΄ -->
  <text x="187.5" y="730" text-anchor="middle" font-family="Arial" font-size="10" fill="#6c757d">μµμ† 2κ° μ΄μƒμ μ¥μ†λ¥Ό μ…λ ¥ν•κ³ </text>
  <text x="187.5" y="745" text-anchor="middle" font-family="Arial" font-size="10" fill="#6c757d">μ¤ν•€ λ²„νΌμ„ λλ¬μ£Όμ„Έμ”</text>
  
  <!-- ν•λ‹¨ λ„¤λΉ„κ²μ΄μ… λ°” (ν™ μΈλ””μΌ€μ΄ν„°) -->
  <rect x="137.5" y="775" width="100" height="4" rx="2" fill="#000" opacity="0.3"/>
</svg> 